<svg width="18" height="26" viewBox="0 0 18 26" fill="none" xmlns="http://www.w3.org/2000/svg">
<g filter="url(#filter0_d)">
<path fill-rule="evenodd" clip-rule="evenodd" d="M13.6234 0.0037452L11.2249 0C8.5302 0 6.78878 1.73871 6.78878 4.42982V6.47227H4.37715C4.16875 6.47227 4 6.63668 4 6.83949V9.79876C4 10.0016 4.16895 10.1658 4.37715 10.1658H6.78878V17.633C6.78878 17.8358 6.95753 18 7.16593 18H10.3124C10.5208 18 10.6896 17.8356 10.6896 17.633V10.1658H13.5093C13.7177 10.1658 13.8865 10.0016 13.8865 9.79876L13.8876 6.83949C13.8876 6.74211 13.8478 6.64886 13.7772 6.57994C13.7066 6.51103 13.6103 6.47227 13.5103 6.47227H10.6896V4.74086C10.6896 3.90868 10.8933 3.48622 12.0073 3.48622L13.623 3.48566C13.8312 3.48566 14 3.32124 14 3.11863V0.370775C14 0.168347 13.8314 0.00411972 13.6234 0.0037452Z" fill="white"/>
</g>
<defs>
<filter id="filter0_d" x="0" y="0" width="18" height="26" filterUnits="userSpaceOnUse" color-interpolation-filters="sRGB">
<feFlood flood-opacity="0" result="BackgroundImageFix"/>
<feColorMatrix in="SourceAlpha" type="matrix" values="0 0 0 0 0 0 0 0 0 0 0 0 0 0 0 0 0 0 127 0"/>
<feOffset dy="4"/>
<feGaussianBlur stdDeviation="2"/>
<feColorMatrix type="matrix" values="0 0 0 0 0 0 0 0 0 0 0 0 0 0 0 0 0 0 0.25 0"/>
<feBlend mode="normal" in2="BackgroundImageFix" result="effect1_dropShadow"/>
<feBlend mode="normal" in="SourceGraphic" in2="effect1_dropShadow" result="shape"/>
</filter>
</defs>
</svg>
