<svg width="26" height="24" viewBox="0 0 26 24" fill="none" xmlns="http://www.w3.org/2000/svg">
<g filter="url(#filter0_d)">
<path fill-rule="evenodd" clip-rule="evenodd" d="M21.979 2.36284C21.9532 2.33213 21.9106 2.32171 21.8743 2.33846C21.3361 2.57945 20.77 2.7527 20.1869 2.85505C20.8059 2.38498 21.2672 1.73403 21.5037 0.987608C21.5151 0.951878 21.5033 0.912798 21.4744 0.889537C21.4453 0.866275 21.4049 0.863298 21.373 0.882465C20.6758 1.29987 19.9206 1.59409 19.1276 1.75729C18.4248 1.0211 17.4435 0.599976 16.4278 0.599976C14.3623 0.599976 12.6821 2.29603 12.6821 4.38083C12.6821 4.63299 12.7063 4.88273 12.7542 5.12521C9.89336 4.94693 7.21836 3.56053 5.3995 1.30862C5.38088 1.28554 5.35268 1.2727 5.32318 1.27568C5.29387 1.27791 5.26769 1.29466 5.25294 1.32016C4.9211 1.89481 4.74578 2.55228 4.74578 3.2211C4.74578 4.38027 5.2675 5.46408 6.15591 6.17924C5.69853 6.12378 5.25183 5.97844 4.84902 5.75271C4.82192 5.73727 4.78818 5.73745 4.76108 5.75327C4.73398 5.7689 4.71683 5.79793 4.7161 5.82957L4.71573 5.87795C4.71573 7.54274 5.8025 9.00451 7.3487 9.48984C6.94145 9.55609 6.51891 9.55162 6.10356 9.4716C6.07295 9.46583 6.04088 9.47644 6.01986 9.50026C5.99903 9.52408 5.99202 9.55739 6.00161 9.58754C6.46526 11.0484 7.75354 12.0728 9.25309 12.2005C8.00224 13.1255 6.5237 13.6129 4.96147 13.6129C4.67369 13.6129 4.38389 13.5956 4.09998 13.5619C4.05942 13.5573 4.01923 13.5817 4.00522 13.6209C3.99121 13.6606 4.00614 13.7049 4.04117 13.7274C5.73171 14.8218 7.68643 15.4 9.69425 15.4C16.2619 15.4 20.1865 10.0148 20.1865 4.80866C20.1865 4.66369 20.1837 4.51947 20.178 4.37562C20.8865 3.85251 21.4947 3.21217 21.9851 2.47096C22.007 2.43783 22.0046 2.39373 21.979 2.36284Z" fill="white"/>
</g>
<defs>
<filter id="filter0_d" x="0" y="0.599976" width="26" height="22.8" filterUnits="userSpaceOnUse" color-interpolation-filters="sRGB">
<feFlood flood-opacity="0" result="BackgroundImageFix"/>
<feColorMatrix in="SourceAlpha" type="matrix" values="0 0 0 0 0 0 0 0 0 0 0 0 0 0 0 0 0 0 127 0"/>
<feOffset dy="4"/>
<feGaussianBlur stdDeviation="2"/>
<feColorMatrix type="matrix" values="0 0 0 0 0 0 0 0 0 0 0 0 0 0 0 0 0 0 0.25 0"/>
<feBlend mode="normal" in2="BackgroundImageFix" result="effect1_dropShadow"/>
<feBlend mode="normal" in="SourceGraphic" in2="effect1_dropShadow" result="shape"/>
</filter>
</defs>
</svg>
